<?xml version="1.0" standalone="no"?>
<!DOCTYPE svg PUBLIC "-//W3C//DTD SVG 20010904//EN"
 "http://www.w3.org/TR/2001/REC-SVG-20010904/DTD/svg10.dtd">
<svg version="1.0" xmlns="http://www.w3.org/2000/svg"
 width="527.000000pt" height="527.000000pt" viewBox="0 0 527.000000 527.000000"
 preserveAspectRatio="xMidYMid meet">
<metadata>
Created by potrace 1.11, written by Peter Selinger 2001-2013
</metadata>
<g transform="translate(0.000000,527.000000) scale(0.100000,-0.100000)"
fill="#000000" stroke="none">
<path d="M3370 5009 c-75 -21 -86 -29 -103 -77 -22 -62 -21 -94 4 -144 45 -89
36 -169 -36 -325 -40 -86 -50 -89 -133 -42 -48 27 -58 29 -78 18 -18 -9 -30
-10 -49 -1 -21 10 -24 16 -19 41 12 61 -33 139 -94 162 -32 12 -106 -22 -146
-68 -16 -18 -43 -42 -60 -52 -23 -15 -47 -52 -95 -146 -59 -118 -65 -134 -72
-218 -7 -72 -14 -98 -33 -126 -29 -40 -27 -47 17 -56 17 -4 40 -9 49 -11 10
-3 32 -35 50 -72 28 -60 32 -78 36 -180 5 -141 -8 -210 -58 -310 -78 -157
-115 -272 -135 -427 -8 -63 -25 -139 -36 -167 -21 -54 -107 -200 -121 -206 -5
-2 -8 -7 -8 -12 0 -10 -68 -122 -78 -129 -5 -3 -19 -25 -32 -48 -13 -24 -27
-43 -32 -43 -4 0 -8 -5 -8 -12 0 -13 -79 -131 -92 -136 -4 -2 -8 -8 -8 -13 0
-14 -102 -169 -112 -169 -4 0 -8 -7 -8 -15 0 -7 -6 -18 -13 -22 -15 -9 -84
-108 -109 -157 -9 -18 -23 -38 -32 -45 -9 -8 -16 -18 -16 -23 0 -13 -59 -97
-88 -125 -12 -12 -22 -26 -22 -30 0 -5 -12 -23 -27 -40 -16 -17 -41 -47 -57
-67 -18 -22 -38 -36 -52 -36 -48 0 -54 -8 -48 -64 9 -73 -20 -131 -74 -147
-31 -9 -41 -18 -52 -47 -11 -31 -11 -37 5 -48 21 -16 22 -40 6 -164 -13 -92
-11 -153 8 -271 20 -126 83 -212 241 -327 28 -21 138 -43 210 -44 73 -1 137
22 182 64 28 26 58 96 58 138 0 33 -26 118 -45 147 -9 13 -15 45 -15 78 0 46
-3 55 -17 55 -30 -1 -54 -26 -60 -64 -5 -30 0 -44 33 -92 37 -54 39 -60 39
-135 0 -72 -2 -81 -28 -106 -24 -25 -36 -28 -108 -32 -81 -3 -160 10 -185 32
-28 25 -43 37 -48 37 -2 0 -27 21 -55 47 -44 42 -55 60 -81 137 -28 84 -30
100 -30 237 0 142 1 151 32 231 18 46 36 85 40 88 4 3 17 28 30 55 26 55 54
100 80 129 10 11 20 28 23 37 4 10 41 54 83 98 42 45 97 103 122 129 88 94
170 133 206 98 27 -28 74 -210 74 -290 0 -21 4 -55 9 -75 5 -20 17 -67 26
-106 9 -38 22 -92 30 -120 8 -27 17 -89 20 -137 7 -97 -2 -129 -60 -203 -75
-96 -79 -120 -38 -205 23 -48 27 -71 31 -172 l4 -117 34 -37 c31 -32 39 -35
69 -30 19 4 44 2 55 -4 16 -8 25 -7 42 5 25 17 78 21 78 5 0 -15 19 -12 36 5
9 8 32 15 52 15 46 1 72 20 72 52 0 45 -33 123 -63 150 -26 24 -39 28 -85 27
-44 -1 -57 2 -66 17 -32 56 -48 201 -23 229 6 8 23 27 37 43 14 15 34 40 45
55 11 16 33 42 48 60 15 17 30 42 33 54 3 12 15 25 25 28 10 4 19 11 19 16 0
17 45 9 127 -23 89 -34 113 -61 113 -127 0 -19 9 -39 26 -56 25 -25 29 -26
108 -20 96 8 121 18 137 56 6 16 15 29 19 29 16 0 30 55 30 118 0 56 -4 74
-26 107 -40 60 -50 65 -132 65 -93 0 -134 18 -167 75 -28 47 -30 66 -12 97 18
33 91 118 101 118 20 0 105 89 112 118 4 12 10 22 15 22 5 0 9 7 9 15 0 8 4
15 10 15 5 0 14 17 19 38 9 29 7 55 -7 116 -14 67 -23 86 -54 117 -21 21 -51
43 -68 51 -16 7 -30 18 -30 24 0 7 -7 14 -15 17 -35 14 -57 136 -27 149 5 2
28 30 52 63 24 33 47 62 52 63 4 2 8 8 8 12 0 5 10 20 23 34 12 13 29 37 37
53 16 30 58 73 71 73 12 0 75 62 87 85 5 11 13 40 17 65 10 61 37 96 79 104
27 5 41 17 64 54 16 26 35 65 42 87 7 22 17 46 23 53 6 8 10 143 11 375 1 343
2 364 21 397 11 19 23 38 28 41 4 3 10 30 14 60 7 64 23 100 58 127 31 25 31
30 0 42 -29 11 -31 22 -10 40 22 19 18 28 -16 35 -35 8 -47 30 -31 56 10 15 8
20 -8 29 -24 13 -27 69 -6 132 47 140 76 322 80 494 2 111 -1 147 -11 155 -18
15 -16 39 3 60 15 17 14 18 -20 24 -26 5 -36 12 -36 26 0 21 -15 23 -70 8z"/>
</g>
</svg>
